<svg width="1920" height="1920" viewBox="0 0 1920 1920" fill="none" xmlns="http://www.w3.org/2000/svg">
<rect width="1920" height="1920" fill="black"/>
<g clip-path="url(#clip0_452_52)">
<path d="M1583.87 900.802L1583.22 899.919C1494.19 784.778 1388.27 676.749 1292.81 569.328C1269.82 544.296 1247.06 517.628 1220.52 496.474C1142.56 428.895 1076.11 515.737 993.497 480.562C950.472 463.402 916.481 419.867 877.041 394.217C787.384 331.542 756.91 500.086 673.459 487.853C627.107 481.752 576.88 420.896 534.021 392.21C465.692 342.543 426.555 379.473 413.772 452.824C389.655 772.258 400.016 1177.16 407.199 1468.64C409.071 1504.91 410.201 1550.69 431.831 1580.16C458.568 1618.02 508.314 1595.95 538.141 1572.94C604.644 1521.51 656.204 1468.31 742.882 1499.15C903.036 1561.52 918.482 1414.68 1053.2 1427.11C1155.16 1447.53 1190.52 1453.68 1275.74 1382.82C1374.06 1292.17 1469.98 1196 1562.89 1099.86C1627.83 1033.54 1644.39 979.43 1583.87 900.802ZM695.325 1152.9C691.844 1250.82 700.056 1362.95 613.091 1428.65C605.439 1438.65 519.67 1487.05 533.485 1459.28C550.589 1435.93 582.119 1414.79 602.262 1384.83C628.78 1347.57 637.514 1301.81 640.201 1256.92C647.387 1122.48 646.923 981.69 647.641 840.567C647.509 711.983 657.692 621.928 554.626 524.869C541.27 509.345 505.4 478.74 508.273 461.883C519.263 456.504 541.399 472.705 555.079 481.88C597.822 513.999 637.49 554.668 665.306 600.393C693.186 648.118 696.963 699.95 698.404 759.066L698.435 760.143C699.084 891.144 698.4 1022.33 695.325 1152.9ZM1033.71 1224.36L1033.59 1225.44C1028.86 1305.76 987.366 1361.7 915.236 1394.32C899.564 1401.3 900.416 1396.81 908.812 1388C925.275 1371.6 963.899 1332.05 973.178 1298.09C982.137 1273 985.509 1246 987.198 1218.77C989.987 1163.01 988.792 1107.08 988.925 1051.22C988.69 987.774 988.301 924.321 987.297 860.96C984.978 786.043 988.369 706.468 956.185 637.599C939.626 602.182 914.849 571.53 888.348 542.844C874.333 527.001 848.524 502.274 841.931 488.671C839.037 482.16 846.906 485.075 862.494 496.08C886.456 513.034 916.429 539.222 938.144 561.463C1017.33 636.958 1032.78 712.43 1034.11 818.436C1036.21 899.242 1036.37 980.114 1036.64 1060.94C1036.33 1115.41 1037.85 1170.27 1033.71 1224.36ZM1559.29 1024.82L1558.97 1025.74C1545.59 1063 1515.87 1093.85 1488.15 1121.87C1412.22 1195.83 1334.88 1269.19 1254.47 1339.53C1243.9 1349.73 1161.88 1413.32 1198.52 1365.48C1273.75 1282.39 1354.94 1203 1428.7 1118.91C1478.71 1064.09 1522.78 995.587 1488.93 920.383C1464.75 866.066 1421.35 822.763 1383.76 777.52C1330.34 715.169 1273.92 649.533 1219.15 585.62C1211.65 576.715 1205.15 568.854 1200.46 562.821C1192.72 552.989 1189.7 548.064 1192.08 549.031C1207.46 560.032 1234.98 588.891 1251.54 605.602C1308.4 664.072 1369.82 728.111 1427.38 787.874C1482.38 850.255 1592.79 931.668 1559.29 1024.82Z" fill="white"/>
<path d="M1559.29 1024.82L1558.97 1025.74C1545.59 1063 1515.87 1093.85 1488.15 1121.88C1412.22 1195.83 1334.88 1269.19 1254.47 1339.53C1243.9 1349.73 1161.88 1413.32 1198.52 1365.48C1273.74 1282.39 1354.94 1203 1428.7 1118.91C1478.71 1064.09 1522.78 995.587 1488.93 920.383C1464.75 866.066 1421.35 822.763 1383.76 777.52C1330.34 715.169 1273.92 649.533 1219.15 585.62C1211.65 576.715 1205.15 568.854 1200.46 562.821C1192.72 552.989 1189.7 548.064 1192.08 549.031C1207.46 560.032 1234.98 588.891 1251.54 605.602C1308.4 664.072 1369.82 728.111 1427.37 787.874C1482.38 850.255 1592.79 931.668 1559.29 1024.82Z" fill="black"/>
<path d="M1033.71 1224.36L1033.59 1225.44C1028.86 1305.76 987.367 1361.7 915.237 1394.32C899.565 1401.3 900.417 1396.81 908.813 1388C925.275 1371.6 963.9 1332.05 973.179 1298.09C982.138 1273 985.509 1246 987.198 1218.77C989.988 1163.01 988.793 1107.08 988.926 1051.22C988.69 987.774 988.302 924.321 987.298 860.96C984.979 786.043 988.37 706.468 956.186 637.599C939.626 602.182 914.849 571.53 888.348 542.844C874.334 527.001 848.525 502.274 841.931 488.671C839.038 482.16 846.907 485.075 862.495 496.08C886.457 513.034 916.43 539.223 938.145 561.463C1017.34 636.958 1032.78 712.43 1034.11 818.436C1036.21 899.242 1036.37 980.114 1036.64 1060.94C1036.33 1115.41 1037.85 1170.27 1033.71 1224.36Z" fill="black"/>
<path d="M695.325 1152.9C691.844 1250.82 700.056 1362.95 613.091 1428.65C605.439 1438.65 519.67 1487.05 533.485 1459.28C550.589 1435.93 582.119 1414.79 602.262 1384.83C628.78 1347.57 637.514 1301.81 640.201 1256.92C647.387 1122.48 646.923 981.69 647.641 840.567C647.509 711.983 657.692 621.928 554.626 524.869C541.27 509.345 505.4 478.74 508.273 461.883C519.263 456.504 541.399 472.705 555.079 481.88C597.822 513.999 637.49 554.668 665.306 600.393C693.186 648.118 696.963 699.95 698.404 759.066L698.435 760.143C699.084 891.144 698.4 1022.33 695.325 1152.9Z" fill="black"/>
</g>
<defs>
<clipPath id="clip0_452_52">
<rect width="1225.3" height="1231.05" fill="white" transform="translate(407.707 368.151) rotate(1.07995)"/>
</clipPath>
</defs>
</svg>
